<svg width="24" height="24" viewBox="0 0 24 24" fill="none" xmlns="http://www.w3.org/2000/svg">
<path d="M17.0996 8.1399C17.0996 8.0499 17.0796 7.9599 17.0496 7.8899C17.0496 7.8799 17.0296 7.8699 17.0196 7.8499C16.9896 7.7899 16.9496 7.7299 16.8996 7.6799L13.8296 4.7499C13.8296 4.7499 13.7596 4.7099 13.7196 4.6799C13.5996 4.5099 13.4196 4.3999 13.1996 4.3999C13.1596 4.3999 13.1196 4.4199 13.0796 4.4199C13.0396 4.4199 12.9996 4.3999 12.9496 4.3999H9.48961C8.16961 4.3999 7.10961 5.4699 7.09961 6.7899V14.7899C7.09961 16.0199 8.09961 17.0199 9.32961 17.0199H14.8596C16.0896 17.0199 17.0896 16.0199 17.0896 14.7899V8.1599L17.0996 8.1399ZM15.7996 14.7699C15.7996 15.2799 15.3796 15.6999 14.8696 15.6999H9.33961C8.82961 15.6999 8.40961 15.2799 8.40961 14.7699V6.7699C8.40961 6.1699 8.89961 5.6899 9.49961 5.6799H12.5496V8.1299C12.5496 8.2999 12.6196 8.4699 12.7396 8.5899C12.8596 8.7099 13.0296 8.7799 13.1996 8.7799H15.7996V14.7599V14.7699Z" fill="#00AEC7"/>
<path d="M5.60078 16.4198V11.2998H4.30078V16.4198C4.30078 18.2298 5.77078 19.6998 7.59078 19.7098H12.0108V18.4098H7.59078C6.49078 18.4098 5.61078 17.5198 5.60078 16.4198Z" fill="#00AEC7"/>
</svg>
